<svg xmlns="http://www.w3.org/2000/svg" viewBox="0 0 128 128" role="img" aria-label="ZenFlow">
  <defs>
    <linearGradient id="paper" x1="20" x2="108" y1="12" y2="116" gradientUnits="userSpaceOnUse">
      <stop stop-color="#f8f2e8" />
      <stop offset="1" stop-color="#d9e6d7" />
    </linearGradient>
    <linearGradient id="ink" x1="32" x2="98" y1="31" y2="99" gradientUnits="userSpaceOnUse">
      <stop stop-color="#2f5f57" />
      <stop offset=".52" stop-color="#5d7c63" />
      <stop offset="1" stop-color="#a26f46" />
    </linearGradient>
    <filter id="soft-shadow" x="-20%" y="-20%" width="140%" height="140%" color-interpolation-filters="sRGB">
      <feDropShadow dx="0" dy="6" stdDeviation="6" flood-color="#2f4039" flood-opacity=".2" />
    </filter>
  </defs>
  <rect width="128" height="128" rx="28" fill="url(#paper)" />
  <circle cx="64" cy="64" r="39" fill="none" stroke="#21352f" stroke-width="7" opacity=".9" filter="url(#soft-shadow)" />
  <path
    d="M29 68c10-9 21-13 34-12 16 2 22 14 36 14 7 0 13-3 19-8"
    fill="none"
    stroke="url(#ink)"
    stroke-linecap="round"
    stroke-width="8"
  />
  <path
    d="M38 82c8-5 16-7 25-6 13 1 18 8 29 8 7 0 14-2 20-7"
    fill="none"
    stroke="#21352f"
    stroke-linecap="round"
    stroke-width="5"
    opacity=".5"
  />
  <circle cx="84" cy="44" r="6" fill="#a26f46" opacity=".9" />
</svg>
